<svg xmlns="http://www.w3.org/2000/svg" width="1024" height="1024" viewBox="0 0 1024 1024">
<g>
<path d="M 0.00 538.83 L 0.00 488.23 L 3.83 484.77 C10.61,478.64 18.16,475.66 28.05,475.18 C36.68,474.77 40.49,475.46 48.00,478.79 C57.46,482.98 66.84,494.48 69.13,504.67 C69.81,507.71 70.92,510.42 71.60,510.68 C72.27,510.94 75.46,510.04 78.66,508.69 C94.82,501.87 99.67,499.80 101.50,498.94 C103.50,498.00 112.33,494.42 155.50,477.06 C168.15,471.97 180.45,466.93 182.84,465.86 C185.23,464.78 189.73,462.97 192.84,461.82 C195.95,460.68 200.31,458.94 202.51,457.95 C218.60,450.78 262.07,433.72 264.50,433.62 L 267.50 433.50 L 267.73 513.29 C267.92,580.35 267.73,593.17 266.57,593.61 C265.31,594.09 254.03,590.28 249.70,587.91 C248.71,587.36 231.83,580.45 212.20,572.55 C192.56,564.66 170.29,555.66 162.71,552.56 C155.13,549.46 145.45,545.62 141.21,544.03 C136.97,542.44 125.85,537.96 116.50,534.07 C107.15,530.19 99.14,527.01 98.70,527.00 C98.25,527.00 96.00,526.14 93.70,525.09 C84.63,520.96 73.64,516.92 72.23,517.20 C71.32,517.38 70.07,520.11 69.00,524.21 C65.42,537.98 56.25,547.74 43.40,551.42 C28.10,555.82 16.37,553.26 4.75,543.02 L 0.00 538.83 ZM 0.00 0.00 L 1024.00 0.00 L 522.50 0.12 L 528.00 2.78 C534.83,6.09 542.22,13.63 546.35,21.50 C549.33,27.17 549.50,28.10 549.50,38.50 C549.50,48.65 549.27,49.97 546.56,55.50 C541.17,66.49 529.70,75.56 518.64,77.56 C514.95,78.23 514.80,78.40 515.31,81.50 C515.60,83.28 516.73,86.71 517.82,89.12 C518.91,91.53 521.46,97.78 523.47,103.00 C525.49,108.22 528.65,115.91 530.50,120.07 C532.36,124.24 536.80,134.82 540.37,143.57 C543.94,152.33 548.94,164.45 551.50,170.50 C554.05,176.55 557.62,185.10 559.43,189.50 C568.02,210.33 578.43,235.01 580.60,239.69 C581.92,242.54 583.00,245.17 583.00,245.54 C583.00,245.90 583.66,247.62 584.46,249.35 C586.93,254.67 592.00,268.38 592.00,269.73 C592.00,270.75 576.01,271.00 511.56,271.00 C467.32,271.00 430.90,270.65 430.64,270.23 C430.21,269.54 436.45,253.72 444.93,234.00 C446.71,229.88 450.65,220.43 453.68,213.00 C464.74,185.95 469.92,173.35 472.98,166.03 C474.69,161.92 480.83,147.07 486.62,133.03 C492.41,118.99 499.40,102.17 502.15,95.66 C508.86,79.76 508.86,79.13 502.32,77.43 C494.12,75.29 488.72,72.32 483.18,66.89 C477.06,60.90 472.32,51.59 471.40,43.75 C470.63,37.16 472.46,26.13 475.22,20.81 C478.24,15.00 484.76,8.21 491.39,3.95 L 497.50 0.04 L 0.00 0.00 ZM 525.57 1024.00 L 249.06 1024.00 C414.84,1024.00 497.91,1023.67 497.50,1023.00 C497.16,1022.45 496.32,1022.00 495.64,1022.00 C494.95,1022.00 491.48,1019.60 487.92,1016.67 C473.69,1004.93 469.53,987.45 476.83,970.08 C481.55,958.86 490.25,951.32 502.35,947.95 C509.69,945.92 509.69,945.91 504.36,933.20 C500.05,922.91 498.75,919.69 496.99,915.00 C496.27,913.08 492.43,903.62 488.45,894.00 C484.48,884.38 475.28,862.10 468.01,844.50 C460.74,826.90 454.23,811.15 453.53,809.50 C445.36,790.22 443.62,786.21 440.97,780.50 C435.87,769.48 430.28,755.45 430.63,754.53 C430.89,753.83 457.25,753.50 511.76,753.50 L 592.50 753.50 L 592.26 756.68 C592.12,758.43 590.39,763.38 588.41,767.68 C586.43,771.98 584.23,777.08 583.52,779.00 C582.81,780.92 580.99,785.20 579.47,788.50 C577.95,791.80 574.29,800.51 571.35,807.85 C566.54,819.83 562.36,829.81 558.52,838.50 C557.79,840.15 554.63,847.80 551.50,855.50 C548.36,863.20 543.41,875.35 540.50,882.50 C537.59,889.65 533.58,899.17 531.60,903.66 C529.62,908.15 528.00,912.12 528.00,912.47 C528.00,912.83 526.93,915.46 525.63,918.31 C519.79,931.12 514.83,944.11 515.31,945.36 C515.59,946.11 517.78,946.95 520.17,947.22 C530.69,948.44 542.52,957.56 547.91,968.63 C552.11,977.23 553.18,988.42 550.65,997.12 C548.23,1005.46 540.92,1014.57 532.53,1019.73 L 525.57 1024.00 ZM 749.70 381.92 C746.29,389.85 743.02,396.49 742.44,396.69 C741.85,396.88 735.77,391.35 728.94,384.38 C722.10,377.42 697.01,352.17 673.19,328.28 C649.38,304.39 630.04,284.37 630.24,283.79 C630.43,283.22 634.39,281.19 639.04,279.28 C652.41,273.80 678.17,262.89 679.92,261.98 C680.79,261.53 690.28,257.46 701.00,252.95 C711.72,248.44 722.97,243.63 726.00,242.27 C729.03,240.90 733.71,238.91 736.42,237.84 C739.13,236.77 743.18,235.06 745.42,234.05 C752.71,230.75 771.08,223.00 771.61,223.00 C771.90,223.00 779.19,219.92 787.82,216.15 C796.44,212.38 806.79,208.02 810.81,206.47 C814.83,204.91 818.51,202.92 818.98,202.04 C819.58,200.91 818.74,198.83 816.11,194.92 C808.75,183.97 806.99,171.91 811.01,159.99 C815.09,147.86 822.91,139.38 834.10,134.95 C838.67,133.14 841.03,132.87 849.50,133.20 C855.00,133.41 860.40,134.09 861.50,134.71 C862.60,135.33 865.11,136.53 867.07,137.38 C870.96,139.06 879.29,147.39 882.76,153.08 C885.93,158.26 888.31,169.43 887.59,175.73 C886.04,189.21 877.05,201.80 865.01,207.34 C855.40,211.76 844.40,212.19 833.59,208.56 C829.24,207.10 825.16,206.11 824.51,206.36 C823.87,206.60 822.52,208.99 821.51,211.65 C819.63,216.64 809.82,240.22 805.56,250.00 C801.48,259.38 800.36,262.07 794.49,276.50 C791.36,284.20 788.20,291.85 787.47,293.50 C786.75,295.15 784.99,299.10 783.57,302.28 C782.16,305.46 781.00,308.26 781.00,308.50 C781.00,308.75 779.82,311.55 778.38,314.72 C776.94,317.90 775.19,321.85 774.49,323.50 C773.80,325.15 771.20,331.23 768.71,337.00 C766.23,342.77 763.05,350.34 761.64,353.82 C760.24,357.29 758.37,361.79 757.50,363.82 C756.62,365.84 753.11,373.99 749.70,381.92 ZM 1024.00 489.33 L 1024.00 535.84 L 1018.75 540.46 C1010.63,547.59 1004.27,550.29 994.34,550.81 C984.46,551.33 978.90,550.02 970.70,545.23 C962.55,540.48 957.24,532.93 954.01,521.52 C952.01,514.48 951.64,514.41 941.04,519.07 C931.47,523.28 894.39,538.54 880.50,543.99 C860.82,551.71 852.67,554.99 849.50,556.48 C847.85,557.25 840.65,560.21 833.50,563.04 C826.35,565.88 819.15,568.79 817.50,569.50 C814.01,571.01 806.21,574.14 800.50,576.35 C798.30,577.19 791.78,579.89 786.00,582.33 C780.22,584.77 771.52,588.43 766.65,590.48 C761.78,592.52 757.41,593.81 756.94,593.34 C756.32,592.72 755.52,465.94 755.95,436.25 C755.99,433.64 756.41,433.00 758.08,433.00 C760.03,433.00 776.79,439.23 787.62,443.97 C793.81,446.68 795.57,447.41 800.50,449.28 C802.70,450.11 807.20,451.93 810.50,453.32 C813.80,454.71 818.75,456.73 821.50,457.80 C824.25,458.87 833.92,462.79 843.00,466.51 C852.08,470.22 861.53,474.05 864.00,475.02 C872.13,478.18 895.63,487.78 900.11,489.77 C902.53,490.84 907.20,492.75 910.50,494.03 C913.80,495.30 924.09,499.45 933.36,503.24 C942.63,507.03 950.80,509.91 951.51,509.63 C952.23,509.36 953.12,507.64 953.49,505.82 C956.31,492.11 963.48,482.34 974.82,476.77 C981.00,473.74 982.20,473.50 991.51,473.50 C1000.83,473.50 1002.02,473.73 1008.20,476.78 C1011.86,478.58 1016.91,482.14 1019.43,484.69 L 1024.00 489.33 ZM 337.00 341.86 C307.03,372.17 281.95,397.19 281.26,397.45 C279.79,398.02 278.17,395.05 274.71,385.50 C272.45,379.27 269.76,372.87 265.45,363.50 C264.69,361.85 260.86,352.85 256.94,343.50 C243.19,310.75 236.19,294.29 225.01,268.50 C218.81,254.20 210.48,234.93 206.49,225.67 C202.50,216.41 198.76,208.36 198.16,207.76 C197.40,207.00 195.29,207.50 190.79,209.52 C175.75,216.29 159.00,213.13 146.77,201.22 C141.20,195.80 138.35,190.18 136.39,180.80 C132.81,163.61 141.34,146.18 157.50,137.67 C163.12,134.71 164.16,134.52 174.00,134.51 C183.49,134.50 185.11,134.78 190.78,137.40 C198.40,140.92 206.55,149.27 210.59,157.71 C213.00,162.74 213.38,164.75 213.43,173.00 C213.51,183.53 211.84,189.45 206.83,196.45 C205.27,198.62 204.00,201.01 204.00,201.75 C204.00,202.95 206.78,204.43 218.50,209.49 C232.96,215.72 237.48,217.71 244.00,220.72 C248.12,222.62 253.52,224.87 255.99,225.71 C258.46,226.55 263.30,228.54 266.76,230.12 C270.22,231.70 273.28,233.00 273.57,233.00 C273.86,233.00 277.33,234.51 281.30,236.35 C285.26,238.20 292.55,241.41 297.50,243.49 C302.45,245.58 311.67,249.51 318.00,252.24 C324.33,254.97 331.98,258.11 335.00,259.23 C338.02,260.35 340.95,261.61 341.50,262.03 C342.05,262.46 345.34,263.95 348.82,265.36 C352.29,266.76 356.79,268.64 358.82,269.54 C360.84,270.43 369.02,273.94 377.00,277.33 C387.14,281.65 391.50,283.99 391.50,285.13 C391.50,286.01 366.98,311.54 337.00,341.86 ZM 862.53 888.91 C835.07,898.61 809.90,881.20 809.90,852.53 C809.90,843.38 811.32,838.71 816.67,830.23 C818.50,827.33 820.00,824.37 820.00,823.65 C820.00,822.93 815.22,820.41 809.25,817.99 C803.34,815.60 794.83,811.92 790.35,809.82 C785.87,807.72 781.57,806.00 780.80,806.00 C780.03,806.00 778.97,805.60 778.45,805.11 C777.93,804.62 773.45,802.53 768.50,800.48 C763.55,798.42 757.70,795.93 755.50,794.95 C753.30,793.97 747.00,791.28 741.50,788.98 C736.00,786.68 730.15,784.22 728.50,783.50 C720.07,779.86 705.88,774.00 705.47,774.00 C705.21,774.00 702.19,772.70 698.75,771.12 C693.19,768.56 660.18,754.51 638.50,745.47 C634.10,743.64 630.50,741.73 630.50,741.22 C630.50,740.72 655.47,715.05 685.99,684.19 C729.57,640.11 741.75,628.32 742.70,629.28 C743.37,629.95 746.58,636.80 749.84,644.50 C755.84,658.67 765.31,680.35 769.49,689.50 C770.74,692.25 774.57,701.25 778.00,709.50 C781.43,717.75 786.48,729.67 789.22,736.00 C791.97,742.33 796.58,753.12 799.48,760.00 C802.38,766.88 807.31,778.58 810.44,786.00 C813.57,793.42 817.17,801.97 818.46,805.00 C819.74,808.03 821.39,812.24 822.14,814.38 C822.88,816.51 824.06,818.47 824.75,818.73 C825.43,819.00 829.04,817.98 832.75,816.46 C838.34,814.19 841.04,813.71 848.52,813.68 C856.89,813.64 858.08,813.90 865.18,817.31 C877.06,823.03 884.50,832.83 887.01,846.07 C890.37,863.79 879.42,882.95 862.53,888.91 ZM 191.64 889.92 C185.03,893.08 175.69,894.36 168.50,893.10 C166.30,892.71 161.49,890.94 157.82,889.18 C149.83,885.33 144.00,879.20 139.72,870.14 C137.06,864.52 136.70,862.67 136.61,854.11 C136.52,845.10 136.74,843.98 139.78,837.80 C143.44,830.36 151.89,821.84 158.51,818.90 C167.89,814.74 182.06,814.72 191.44,818.87 C194.09,820.04 196.66,821.00 197.15,821.00 C197.64,821.00 199.32,818.19 200.89,814.75 C205.42,804.80 211.02,791.56 211.01,790.82 C211.00,790.45 212.31,787.30 213.92,783.82 C218.41,774.08 224.72,759.66 230.02,747.00 C237.85,728.32 259.55,677.72 261.98,672.50 C262.49,671.40 265.91,663.30 269.57,654.50 C279.59,630.41 279.79,630.00 281.21,630.00 C282.50,630.00 392.17,739.01 392.81,740.93 C393.22,742.15 387.70,744.97 376.38,749.33 C371.49,751.21 363.67,754.45 359.00,756.52 C354.33,758.59 349.15,760.86 347.50,761.56 C335.91,766.48 306.33,779.21 290.00,786.32 C231.00,811.99 216.14,818.40 212.63,819.67 C206.74,821.81 203.00,823.93 203.00,825.14 C203.00,825.74 204.59,828.39 206.53,831.04 C214.65,842.10 216.58,858.82 211.06,870.38 C207.27,878.32 199.46,886.18 191.64,889.92 Z" fill="rgb(33,164,223)"/>
<path d="M 524.60 708.99 C517.51,709.54 511.21,709.92 510.60,709.83 C510.00,709.73 507.48,709.50 505.00,709.32 C486.45,707.97 461.38,703.74 455.50,700.97 C454.40,700.46 449.45,698.63 444.50,696.92 C431.26,692.34 416.04,684.67 402.77,675.88 C388.31,666.31 390.32,667.97 375.04,653.00 C362.28,640.50 350.95,626.91 345.45,617.50 C343.84,614.75 342.00,611.60 341.36,610.50 C337.76,604.32 328.00,584.01 328.00,582.70 C328.00,581.86 327.36,579.89 326.58,578.33 C325.80,576.77 324.45,572.91 323.58,569.75 C322.71,566.59 321.36,561.64 320.57,558.75 C316.56,544.01 315.64,535.63 315.61,513.50 C315.58,491.29 316.64,481.45 320.57,467.41 C321.36,464.61 322.00,461.46 322.00,460.41 C322.00,458.75 326.37,445.61 329.94,436.54 C332.34,430.46 341.41,413.26 345.79,406.50 C364.69,377.34 399.28,347.05 426.85,335.54 C431.61,333.55 436.28,331.49 437.24,330.96 C438.19,330.43 439.47,330.00 440.09,330.00 C440.70,330.00 442.62,329.37 444.35,328.60 C460.97,321.21 497.34,315.12 518.00,316.26 C534.39,317.17 551.13,319.74 565.50,323.56 C575.45,326.21 578.52,327.20 579.45,328.09 C579.97,328.59 581.25,329.00 582.30,329.00 C583.34,329.00 585.39,329.65 586.85,330.45 C588.31,331.24 594.71,334.36 601.08,337.39 C620.61,346.66 635.20,357.33 652.02,374.66 C665.48,388.52 667.32,390.87 681.78,412.57 C684.61,416.81 695.02,438.97 697.27,445.52 C702.73,461.42 703.29,463.73 706.70,484.50 C709.11,499.21 709.05,527.12 706.58,542.50 C702.26,569.40 693.17,594.44 680.36,614.73 C668.85,632.96 649.58,654.65 634.00,666.92 C603.39,691.03 564.94,705.81 524.60,708.99 ZM 492.00 693.97 C492.00,696.73 495.34,696.63 497.21,693.81 C498.62,691.69 498.89,691.66 505.58,692.87 C509.39,693.56 515.88,694.24 520.00,694.39 C524.12,694.54 531.00,695.03 535.29,695.47 C541.72,696.14 543.28,696.02 544.29,694.77 C544.95,693.94 546.46,693.03 547.62,692.75 C549.31,692.36 549.65,692.63 549.26,694.13 C548.99,695.16 549.27,696.00 549.88,696.00 C550.50,696.00 551.00,695.38 551.00,694.62 C551.00,692.82 555.20,691.71 556.16,693.26 C556.56,693.91 556.40,694.75 555.79,695.13 C555.19,695.50 556.60,695.71 558.92,695.59 C561.25,695.47 563.45,694.93 563.82,694.39 C565.00,692.66 571.38,689.24 574.77,688.52 C576.57,688.14 580.40,687.69 583.27,687.51 C586.15,687.33 590.53,686.39 593.00,685.42 C598.21,683.38 607.00,677.91 607.00,676.72 C607.00,676.27 608.58,675.24 610.50,674.44 C612.42,673.63 614.00,672.30 614.00,671.49 C614.00,670.67 614.79,670.00 615.75,669.99 C616.71,669.99 618.85,669.09 620.50,668.00 C622.15,666.91 624.35,666.01 625.38,666.01 C626.41,666.00 629.64,663.53 632.54,660.50 C635.45,657.47 638.29,655.00 638.85,655.00 C639.41,655.00 640.15,654.09 640.51,652.98 C640.86,651.87 642.72,650.31 644.65,649.50 C646.90,648.56 648.56,646.98 649.27,645.09 C649.88,643.47 651.42,641.67 652.69,641.09 C653.96,640.52 655.00,639.59 655.00,639.03 C655.00,638.47 657.71,635.26 661.02,631.90 C664.37,628.50 667.95,623.65 669.11,620.97 C670.25,618.31 672.04,615.37 673.09,614.42 C674.14,613.47 675.00,612.17 675.00,611.55 C675.00,610.92 677.06,607.57 679.58,604.11 C682.09,600.65 684.80,595.95 685.60,593.66 C686.40,591.37 687.78,587.95 688.66,586.06 C689.55,584.17 690.61,579.59 691.01,575.88 C691.46,571.81 692.61,567.74 693.92,565.63 C696.67,561.17 698.65,547.42 698.19,535.81 C697.86,527.23 697.82,527.12 695.18,526.81 C692.73,526.53 692.43,526.01 691.69,520.67 C691.15,516.76 691.25,514.41 691.99,513.52 C692.59,512.79 692.79,511.03 692.44,509.61 C692.08,508.20 692.26,505.70 692.82,504.08 C693.67,501.65 693.60,501.22 692.43,501.67 C691.09,502.18 690.85,501.81 690.60,498.83 C690.54,498.18 689.26,496.42 687.75,494.90 C685.49,492.64 685.00,491.27 685.00,487.20 C685.00,484.25 684.45,481.79 683.64,481.12 C682.89,480.50 682.01,476.99 681.66,473.26 C681.25,468.87 680.33,465.59 679.02,463.81 C677.53,461.80 677.00,459.53 677.00,455.16 C677.00,448.29 675.76,446.70 671.15,447.62 C666.67,448.52 665.00,446.72 665.00,441.04 C665.00,436.97 664.48,435.75 661.25,432.25 C655.27,425.78 653.00,422.35 653.00,419.82 C653.00,417.49 644.95,408.00 642.97,408.00 C641.33,408.00 640.60,407.74 637.50,406.01 C634.98,404.61 634.45,403.64 634.19,399.92 C633.74,393.68 629.86,389.62 625.05,390.39 C620.40,391.13 615.50,387.48 614.58,382.58 C613.73,378.03 610.26,375.40 603.19,373.95 C600.06,373.31 596.83,372.54 596.00,372.23 C595.17,371.93 594.22,371.74 593.87,371.80 C593.52,371.87 592.44,371.04 591.46,369.96 C590.49,368.88 588.94,368.00 588.02,368.00 C587.10,368.00 585.39,366.99 584.23,365.75 C582.34,363.74 580.01,362.41 569.67,357.38 C568.11,356.62 566.38,356.00 565.82,356.00 C565.27,356.00 563.61,355.15 562.15,354.12 C560.64,353.05 556.70,351.92 553.00,351.50 C549.42,351.10 545.28,350.14 543.80,349.38 C542.31,348.62 538.18,348.00 534.61,348.00 C531.04,348.00 527.88,347.61 527.59,347.14 C525.71,344.11 499.58,345.61 495.27,349.00 C493.51,350.39 491.16,351.01 487.62,351.04 C479.26,351.11 474.34,352.50 470.54,355.83 C467.52,358.49 466.61,358.80 464.43,357.97 C462.77,357.34 461.23,357.34 460.04,357.98 C458.09,359.02 453.43,364.21 452.83,366.02 C452.63,366.62 450.45,367.55 447.98,368.09 C445.52,368.63 442.28,369.95 440.79,371.04 C439.30,372.12 437.57,373.00 436.94,373.00 C436.31,373.00 434.38,373.63 432.65,374.39 C430.92,375.16 428.78,376.02 427.91,376.30 C427.03,376.58 425.57,378.32 424.66,380.16 C422.37,384.79 419.48,388.00 417.59,388.00 C416.72,388.00 416.00,388.45 416.00,389.00 C416.00,389.55 415.35,390.00 414.56,390.00 C411.85,390.00 407.64,394.59 407.42,397.78 C407.15,401.70 406.32,403.00 404.10,403.00 C403.11,403.00 401.45,403.95 400.40,405.11 C399.36,406.28 397.56,407.59 396.41,408.03 C393.60,409.10 387.00,423.23 387.00,428.17 C387.00,430.21 383.63,434.00 381.81,434.00 C380.77,434.00 380.03,436.14 379.20,441.47 C377.80,450.45 375.15,456.41 369.91,462.37 L 366.00 466.81 L 366.00 480.28 C366.00,491.04 365.70,494.01 364.50,495.00 C363.67,495.68 363.00,497.38 363.00,498.76 C363.00,500.14 362.48,503.01 361.84,505.13 C360.86,508.41 360.94,509.27 362.34,510.83 C363.68,512.30 364.00,514.83 364.00,523.78 C364.00,529.90 364.49,535.99 365.10,537.31 C365.95,539.19 365.84,540.40 364.60,542.81 C363.47,544.98 363.12,547.77 363.38,552.28 C363.69,557.55 364.22,559.13 366.38,561.29 C368.46,563.37 369.00,564.87 369.00,568.57 C369.00,572.17 369.63,574.00 371.75,576.61 C373.26,578.47 375.74,581.51 377.25,583.38 C378.76,585.25 380.00,587.66 380.00,588.73 C380.00,590.97 382.62,593.63 385.35,594.15 C387.20,594.50 389.96,600.61 389.98,604.42 C389.99,605.48 393.18,609.63 397.08,613.65 C402.75,619.50 404.02,621.36 403.48,623.06 C402.66,625.63 405.14,628.53 413.24,634.48 C416.39,636.80 418.72,638.94 418.41,639.25 C418.10,639.56 418.74,640.10 419.83,640.45 C420.92,640.79 422.07,641.73 422.38,642.54 C422.68,643.34 423.56,644.00 424.31,644.00 C425.07,644.00 426.50,644.90 427.50,646.00 C428.50,647.10 429.86,648.00 430.53,648.00 C431.20,648.00 432.32,648.67 433.00,649.50 C433.71,650.36 435.89,651.00 438.08,651.00 C443.91,651.00 446.62,652.70 448.46,657.54 C449.65,660.65 450.90,662.12 452.98,662.84 C455.94,663.87 464.00,671.47 464.00,673.23 C464.00,673.77 464.74,673.93 465.63,673.59 C466.53,673.24 469.65,673.51 472.56,674.19 C477.37,675.31 477.91,675.72 478.46,678.61 C479.15,682.34 481.59,684.13 488.50,686.01 C494.36,687.61 496.95,690.09 493.92,691.22 C492.87,691.61 492.00,692.85 492.00,693.97 ZM 693.44 556.78 C691.81,559.11 690.00,559.73 690.00,557.95 C690.00,556.17 692.99,551.00 694.03,551.00 C695.52,551.00 695.19,554.29 693.44,556.78 ZM 695.00 546.00 C695.00,547.10 694.55,548.00 694.00,548.00 C693.45,548.00 693.00,547.10 693.00,546.00 C693.00,544.90 693.45,544.00 694.00,544.00 C694.55,544.00 695.00,544.90 695.00,546.00 ZM 693.25 494.28 C695.29,495.01 695.50,494.07 693.69,492.26 C692.15,490.72 692.00,490.72 692.00,492.20 C692.00,493.10 692.56,494.03 693.25,494.28 Z" fill="rgb(128,16,152)"/>
<path d="M 492.00 693.97 C492.00,692.85 492.87,691.61 493.92,691.22 C496.95,690.09 494.36,687.61 488.50,686.01 C481.59,684.13 479.15,682.34 478.46,678.61 C477.91,675.72 477.37,675.31 472.56,674.19 C469.65,673.51 466.53,673.24 465.63,673.59 C464.74,673.93 464.00,673.77 464.00,673.23 C464.00,671.47 455.94,663.87 452.98,662.84 C450.90,662.12 449.65,660.65 448.46,657.54 C446.62,652.70 443.91,651.00 438.08,651.00 C435.89,651.00 433.71,650.36 433.00,649.50 C432.32,648.67 431.20,648.00 430.53,648.00 C429.86,648.00 428.50,647.10 427.50,646.00 C426.50,644.90 425.07,644.00 424.31,644.00 C423.56,644.00 422.68,643.34 422.38,642.54 C422.07,641.73 420.92,640.79 419.83,640.45 C418.74,640.10 418.10,639.56 418.41,639.25 C418.72,638.94 416.39,636.80 413.24,634.48 C405.14,628.53 402.66,625.63 403.48,623.06 C404.02,621.36 402.75,619.50 397.08,613.65 C393.18,609.63 389.99,605.48 389.98,604.42 C389.96,600.61 387.20,594.50 385.35,594.15 C382.62,593.63 380.00,590.97 380.00,588.73 C380.00,587.66 378.76,585.25 377.25,583.38 C375.74,581.51 373.26,578.47 371.75,576.61 C369.63,574.00 369.00,572.17 369.00,568.57 C369.00,564.87 368.46,563.37 366.38,561.29 C364.22,559.13 363.69,557.55 363.38,552.28 C363.12,547.77 363.47,544.98 364.60,542.81 C365.84,540.40 365.95,539.19 365.10,537.31 C364.49,535.99 364.00,529.90 364.00,523.78 C364.00,514.83 363.68,512.30 362.34,510.83 C360.94,509.27 360.86,508.41 361.84,505.13 C362.48,503.01 363.00,500.14 363.00,498.76 C363.00,497.38 363.67,495.68 364.50,495.00 C365.70,494.01 366.00,491.04 366.00,480.28 L 366.00 466.81 L 369.91 462.37 C375.15,456.41 377.80,450.45 379.20,441.47 C380.03,436.14 380.77,434.00 381.81,434.00 C383.63,434.00 387.00,430.21 387.00,428.17 C387.00,423.23 393.60,409.10 396.41,408.03 C397.56,407.59 399.36,406.28 400.40,405.11 C401.45,403.95 403.11,403.00 404.10,403.00 C406.32,403.00 407.15,401.70 407.42,397.78 C407.64,394.59 411.85,390.00 414.56,390.00 C415.35,390.00 416.00,389.55 416.00,389.00 C416.00,388.45 416.72,388.00 417.59,388.00 C419.48,388.00 422.37,384.79 424.66,380.16 C425.57,378.32 427.03,376.58 427.91,376.30 C428.78,376.02 430.92,375.16 432.65,374.39 C434.38,373.63 436.31,373.00 436.94,373.00 C437.57,373.00 439.30,372.12 440.79,371.04 C442.28,369.95 445.52,368.63 447.98,368.09 C450.45,367.55 452.63,366.62 452.83,366.02 C453.43,364.21 458.09,359.02 460.04,357.98 C461.23,357.34 462.77,357.34 464.43,357.97 C466.61,358.80 467.52,358.49 470.54,355.83 C474.34,352.50 479.26,351.11 487.62,351.04 C491.16,351.01 493.51,350.39 495.27,349.00 C499.58,345.61 525.71,344.11 527.59,347.14 C527.88,347.61 531.04,348.00 534.61,348.00 C538.18,348.00 542.31,348.62 543.80,349.38 C545.28,350.14 549.42,351.10 553.00,351.50 C556.70,351.92 560.64,353.05 562.15,354.12 C563.61,355.15 565.27,356.00 565.82,356.00 C566.38,356.00 568.11,356.62 569.67,357.38 C580.01,362.41 582.34,363.74 584.23,365.75 C585.39,366.99 587.10,368.00 588.02,368.00 C588.94,368.00 590.49,368.88 591.46,369.96 C592.44,371.04 593.52,371.87 593.87,371.80 C594.22,371.74 595.17,371.93 596.00,372.23 C596.83,372.54 600.06,373.31 603.19,373.95 C610.26,375.40 613.73,378.03 614.58,382.58 C615.50,387.48 620.40,391.13 625.05,390.39 C629.86,389.62 633.74,393.68 634.19,399.92 C634.45,403.64 634.98,404.61 637.50,406.01 C640.60,407.74 641.33,408.00 642.97,408.00 C644.95,408.00 653.00,417.49 653.00,419.82 C653.00,422.35 655.27,425.78 661.25,432.25 C664.48,435.75 665.00,436.97 665.00,441.04 C665.00,446.72 666.67,448.52 671.15,447.62 C675.76,446.70 677.00,448.29 677.00,455.16 C677.00,459.53 677.53,461.80 679.02,463.81 C680.33,465.59 681.25,468.87 681.66,473.26 C682.01,476.99 682.89,480.50 683.64,481.12 C684.45,481.79 685.00,484.25 685.00,487.20 C685.00,491.27 685.49,492.64 687.75,494.90 C689.26,496.42 690.54,498.18 690.60,498.83 C690.85,501.81 691.09,502.18 692.43,501.67 C693.60,501.22 693.67,501.65 692.82,504.08 C692.26,505.70 692.08,508.20 692.44,509.61 C692.79,511.03 692.59,512.79 691.99,513.52 C691.25,514.41 691.15,516.76 691.69,520.67 C692.43,526.01 692.73,526.53 695.18,526.81 C697.82,527.12 697.86,527.23 698.19,535.81 C698.65,547.42 696.67,561.17 693.92,565.63 C692.61,567.74 691.46,571.81 691.01,575.88 C690.61,579.59 689.55,584.17 688.66,586.06 C687.78,587.95 686.40,591.37 685.60,593.66 C684.80,595.95 682.09,600.65 679.58,604.11 C677.06,607.57 675.00,610.92 675.00,611.55 C675.00,612.17 674.14,613.47 673.09,614.42 C672.04,615.37 670.25,618.31 669.11,620.97 C667.95,623.65 664.37,628.50 661.02,631.90 C657.71,635.26 655.00,638.47 655.00,639.03 C655.00,639.59 653.96,640.52 652.69,641.09 C651.42,641.67 649.88,643.47 649.27,645.09 C648.56,646.98 646.90,648.56 644.65,649.50 C642.72,650.31 640.86,651.87 640.51,652.98 C640.15,654.09 639.41,655.00 638.85,655.00 C638.29,655.00 635.45,657.47 632.54,660.50 C629.64,663.53 626.41,666.00 625.38,666.01 C624.35,666.01 622.15,666.91 620.50,668.00 C618.85,669.09 616.71,669.99 615.75,669.99 C614.79,670.00 614.00,670.67 614.00,671.49 C614.00,672.30 612.42,673.63 610.50,674.44 C608.58,675.24 607.00,676.27 607.00,676.72 C607.00,677.91 598.21,683.38 593.00,685.42 C590.53,686.39 586.15,687.33 583.27,687.51 C580.40,687.69 576.57,688.14 574.77,688.52 C571.38,689.24 565.00,692.66 563.82,694.39 C563.45,694.93 561.25,695.47 558.92,695.59 C556.60,695.71 555.19,695.50 555.79,695.13 C556.40,694.75 556.56,693.91 556.16,693.26 C555.20,691.71 551.00,692.82 551.00,694.62 C551.00,695.38 550.50,696.00 549.88,696.00 C549.27,696.00 548.99,695.16 549.26,694.13 C549.65,692.63 549.31,692.36 547.62,692.75 C546.46,693.03 544.95,693.94 544.29,694.77 C543.28,696.02 541.72,696.14 535.29,695.47 C531.00,695.03 524.12,694.54 520.00,694.39 C515.88,694.24 509.39,693.56 505.58,692.87 C498.89,691.66 498.62,691.69 497.21,693.81 C495.34,696.63 492.00,696.73 492.00,693.97 ZM 693.44 556.78 C695.19,554.29 695.52,551.00 694.03,551.00 C692.99,551.00 690.00,556.17 690.00,557.95 C690.00,559.73 691.81,559.11 693.44,556.78 ZM 695.00 546.00 C695.00,544.90 694.55,544.00 694.00,544.00 C693.45,544.00 693.00,544.90 693.00,546.00 C693.00,547.10 693.45,548.00 694.00,548.00 C694.55,548.00 695.00,547.10 695.00,546.00 ZM 693.25 494.28 C692.56,494.03 692.00,493.10 692.00,492.20 C692.00,490.72 692.15,490.72 693.69,492.26 C695.50,494.07 695.29,495.01 693.25,494.28 Z" fill="rgb(150,13,177)"/>
<path d="M -0.00 781.42 L -0.00 538.83 L 4.75 543.02 C16.37,553.26 28.10,555.82 43.40,551.42 C56.25,547.74 65.42,537.98 69.00,524.21 C70.07,520.11 71.32,517.38 72.23,517.20 C73.64,516.92 84.63,520.96 93.70,525.09 C96.00,526.14 98.25,527.00 98.70,527.00 C99.14,527.01 107.15,530.19 116.50,534.07 C125.85,537.96 136.97,542.44 141.21,544.03 C145.45,545.62 155.13,549.46 162.71,552.56 C170.29,555.66 192.56,564.66 212.20,572.55 C231.83,580.45 248.71,587.36 249.70,587.91 C254.03,590.28 265.31,594.09 266.57,593.61 C267.73,593.17 267.92,580.35 267.73,513.29 L 267.50 433.50 L 264.50 433.62 C262.07,433.72 218.60,450.78 202.51,457.95 C200.31,458.94 195.95,460.68 192.84,461.82 C189.73,462.97 185.23,464.78 182.84,465.86 C180.45,466.93 168.15,471.97 155.50,477.06 C112.33,494.42 103.50,498.00 101.50,498.94 C99.67,499.80 94.82,501.87 78.66,508.69 C75.46,510.04 72.27,510.94 71.60,510.68 C70.92,510.42 69.81,507.71 69.13,504.67 C66.84,494.48 57.46,482.98 48.00,478.79 C40.49,475.46 36.68,474.77 28.05,475.18 C18.16,475.66 10.61,478.64 3.83,484.77 L 0.00 488.23 L 0.00 244.12 L 0.00 0.00 L 248.75 0.02 L 497.50 0.04 L 491.39 3.95 C484.76,8.21 478.24,15.00 475.22,20.81 C472.46,26.13 470.63,37.16 471.40,43.75 C472.32,51.59 477.06,60.90 483.18,66.89 C488.72,72.32 494.12,75.29 502.32,77.43 C508.86,79.13 508.86,79.76 502.15,95.66 C499.40,102.17 492.41,118.99 486.62,133.03 C480.83,147.07 474.69,161.92 472.98,166.03 C469.92,173.35 464.74,185.95 453.68,213.00 C450.65,220.43 446.71,229.88 444.93,234.00 C436.45,253.72 430.21,269.54 430.64,270.23 C430.90,270.65 467.32,271.00 511.56,271.00 C576.01,271.00 592.00,270.75 592.00,269.73 C592.00,268.38 586.93,254.67 584.46,249.35 C583.66,247.62 583.00,245.90 583.00,245.54 C583.00,245.17 581.92,242.54 580.60,239.69 C578.43,235.01 568.02,210.33 559.43,189.50 C557.62,185.10 554.05,176.55 551.50,170.50 C548.94,164.45 543.94,152.33 540.37,143.57 C536.80,134.82 532.36,124.24 530.50,120.07 C528.65,115.91 525.49,108.22 523.47,103.00 C521.46,97.78 518.91,91.53 517.82,89.12 C516.73,86.71 515.60,83.28 515.31,81.50 C514.80,78.40 514.95,78.23 518.64,77.56 C529.70,75.56 541.17,66.49 546.56,55.50 C549.27,49.97 549.50,48.65 549.50,38.50 C549.50,28.10 549.33,27.17 546.35,21.50 C542.22,13.63 534.83,6.09 528.00,2.78 L 522.50 0.12 L 773.25 0.06 L 1024.00 0.00 L 1024.00 244.66 L 1024.00 489.33 L 1019.43 484.69 C1016.91,482.14 1011.86,478.58 1008.20,476.78 C1002.02,473.73 1000.83,473.50 991.51,473.50 C982.20,473.50 981.00,473.74 974.82,476.77 C963.48,482.34 956.31,492.11 953.49,505.82 C953.12,507.64 952.23,509.36 951.51,509.63 C950.80,509.91 942.63,507.03 933.36,503.24 C924.09,499.45 913.80,495.30 910.50,494.03 C907.20,492.75 902.53,490.84 900.11,489.77 C895.63,487.78 872.13,478.18 864.00,475.02 C861.53,474.05 852.08,470.22 843.00,466.51 C833.92,462.79 824.25,458.87 821.50,457.80 C818.75,456.73 813.80,454.71 810.50,453.32 C807.20,451.93 802.70,450.11 800.50,449.28 C795.57,447.41 793.81,446.68 787.62,443.97 C776.79,439.23 760.03,433.00 758.08,433.00 C756.41,433.00 755.99,433.64 755.95,436.25 C755.52,465.94 756.32,592.72 756.94,593.34 C757.41,593.81 761.78,592.52 766.65,590.48 C771.52,588.43 780.22,584.77 786.00,582.33 C791.78,579.89 798.30,577.19 800.50,576.35 C806.21,574.14 814.01,571.01 817.50,569.50 C819.15,568.79 826.35,565.88 833.50,563.04 C840.65,560.21 847.85,557.25 849.50,556.48 C852.67,554.99 860.82,551.71 880.50,543.99 C894.39,538.54 931.47,523.28 941.04,519.07 C951.64,514.41 952.01,514.48 954.01,521.52 C957.24,532.93 962.55,540.48 970.70,545.23 C978.90,550.02 984.46,551.33 994.34,550.81 C1004.27,550.29 1010.63,547.59 1018.75,540.46 L 1024.00 535.84 L 1024.00 779.92 L 1024.00 1024.00 L 774.79 1024.00 L 525.57 1024.00 L 532.53 1019.73 C540.92,1014.57 548.23,1005.46 550.65,997.12 C553.18,988.42 552.11,977.23 547.91,968.63 C542.52,957.56 530.69,948.44 520.17,947.22 C517.78,946.95 515.59,946.11 515.31,945.36 C514.83,944.11 519.79,931.12 525.63,918.31 C526.93,915.46 528.00,912.83 528.00,912.47 C528.00,912.12 529.62,908.15 531.60,903.66 C533.58,899.17 537.59,889.65 540.50,882.50 C543.41,875.35 548.36,863.20 551.50,855.50 C554.63,847.80 557.79,840.15 558.52,838.50 C562.36,829.81 566.54,819.83 571.35,807.85 C574.29,800.51 577.95,791.80 579.47,788.50 C580.99,785.20 582.81,780.92 583.52,779.00 C584.23,777.08 586.43,771.98 588.41,767.68 C590.39,763.38 592.12,758.43 592.26,756.68 L 592.50 753.50 L 511.76 753.50 C457.25,753.50 430.89,753.83 430.63,754.53 C430.28,755.45 435.87,769.48 440.97,780.50 C443.62,786.21 445.36,790.22 453.53,809.50 C454.23,811.15 460.74,826.90 468.01,844.50 C475.28,862.10 484.48,884.38 488.45,894.00 C492.43,903.62 496.27,913.08 496.99,915.00 C498.75,919.69 500.05,922.91 504.36,933.20 C509.69,945.91 509.69,945.92 502.35,947.95 C490.25,951.32 481.55,958.86 476.83,970.08 C469.53,987.45 473.69,1004.93 487.92,1016.67 C491.48,1019.60 494.95,1022.00 495.64,1022.00 C496.32,1022.00 497.16,1022.45 497.50,1023.00 C497.91,1023.67 414.84,1024.00 249.06,1024.00 L 0.00 1024.00 L -0.00 781.42 ZM 191.64 889.92 C199.46,886.18 207.27,878.32 211.06,870.38 C216.58,858.82 214.65,842.10 206.53,831.04 C204.59,828.39 203.00,825.74 203.00,825.14 C203.00,823.93 206.74,821.81 212.63,819.67 C216.14,818.40 231.00,811.99 290.00,786.32 C306.33,779.21 335.91,766.48 347.50,761.56 C349.15,760.86 354.33,758.59 359.00,756.52 C363.67,754.45 371.49,751.21 376.38,749.33 C387.70,744.97 393.22,742.15 392.81,740.93 C392.17,739.01 282.50,630.00 281.21,630.00 C279.79,630.00 279.59,630.41 269.57,654.50 C265.91,663.30 262.49,671.40 261.98,672.50 C259.55,677.72 237.85,728.32 230.02,747.00 C224.72,759.66 218.41,774.08 213.92,783.82 C212.31,787.30 211.00,790.45 211.01,790.82 C211.02,791.56 205.42,804.80 200.89,814.75 C199.32,818.19 197.64,821.00 197.15,821.00 C196.66,821.00 194.09,820.04 191.44,818.87 C182.06,814.72 167.89,814.74 158.51,818.90 C151.89,821.84 143.44,830.36 139.78,837.80 C136.74,843.98 136.52,845.10 136.61,854.11 C136.70,862.67 137.06,864.52 139.72,870.14 C144.00,879.20 149.83,885.33 157.82,889.18 C161.49,890.94 166.30,892.71 168.50,893.10 C175.69,894.36 185.03,893.08 191.64,889.92 ZM 862.53 888.91 C879.42,882.95 890.37,863.79 887.01,846.07 C884.50,832.83 877.06,823.03 865.18,817.31 C858.08,813.90 856.89,813.64 848.52,813.68 C841.04,813.71 838.34,814.19 832.75,816.46 C829.04,817.98 825.43,819.00 824.75,818.73 C824.06,818.47 822.88,816.51 822.14,814.38 C821.39,812.24 819.74,808.03 818.46,805.00 C817.17,801.97 813.57,793.42 810.44,786.00 C807.31,778.58 802.38,766.88 799.48,760.00 C796.58,753.12 791.97,742.33 789.22,736.00 C786.48,729.67 781.43,717.75 778.00,709.50 C774.57,701.25 770.74,692.25 769.49,689.50 C765.31,680.35 755.84,658.67 749.84,644.50 C746.58,636.80 743.37,629.95 742.70,629.28 C741.75,628.32 729.57,640.11 685.99,684.19 C655.47,715.05 630.50,740.72 630.50,741.22 C630.50,741.73 634.10,743.64 638.50,745.47 C660.18,754.51 693.19,768.56 698.75,771.12 C702.19,772.70 705.21,774.00 705.47,774.00 C705.88,774.00 720.07,779.86 728.50,783.50 C730.15,784.22 736.00,786.68 741.50,788.98 C747.00,791.28 753.30,793.97 755.50,794.95 C757.70,795.93 763.55,798.42 768.50,800.48 C773.45,802.53 777.93,804.62 778.45,805.11 C778.97,805.60 780.03,806.00 780.80,806.00 C781.57,806.00 785.87,807.72 790.35,809.82 C794.83,811.92 803.34,815.60 809.25,817.99 C815.22,820.41 820.00,822.93 820.00,823.65 C820.00,824.37 818.50,827.33 816.67,830.23 C811.32,838.71 809.90,843.38 809.90,852.53 C809.90,881.20 835.07,898.61 862.53,888.91 ZM 524.60 708.99 C564.94,705.81 603.39,691.03 634.00,666.92 C649.58,654.65 668.85,632.96 680.36,614.73 C693.17,594.44 702.26,569.40 706.58,542.50 C709.05,527.12 709.11,499.21 706.70,484.50 C703.29,463.73 702.73,461.42 697.27,445.52 C695.02,438.97 684.61,416.81 681.78,412.57 C667.32,390.87 665.48,388.52 652.02,374.66 C635.20,357.33 620.61,346.66 601.08,337.39 C594.71,334.36 588.31,331.24 586.85,330.45 C585.39,329.65 583.34,329.00 582.30,329.00 C581.25,329.00 579.97,328.59 579.45,328.09 C578.52,327.20 575.45,326.21 565.50,323.56 C551.13,319.74 534.39,317.17 518.00,316.26 C497.34,315.12 460.97,321.21 444.35,328.60 C442.62,329.37 440.70,330.00 440.09,330.00 C439.47,330.00 438.19,330.43 437.24,330.96 C436.28,331.49 431.61,333.55 426.85,335.54 C399.28,347.05 364.69,377.34 345.79,406.50 C341.41,413.26 332.34,430.46 329.94,436.54 C326.37,445.61 322.00,458.75 322.00,460.41 C322.00,461.46 321.36,464.61 320.57,467.41 C316.64,481.45 315.58,491.29 315.61,513.50 C315.64,535.63 316.56,544.01 320.57,558.75 C321.36,561.64 322.71,566.59 323.58,569.75 C324.45,572.91 325.80,576.77 326.58,578.33 C327.36,579.89 328.00,581.86 328.00,582.70 C328.00,584.01 337.76,604.32 341.36,610.50 C342.00,611.60 343.84,614.75 345.45,617.50 C350.95,626.91 362.28,640.50 375.04,653.00 C390.32,667.97 388.31,666.31 402.77,675.88 C416.04,684.67 431.26,692.34 444.50,696.92 C449.45,698.63 454.40,700.46 455.50,700.97 C461.38,703.74 486.45,707.97 505.00,709.32 C507.48,709.50 510.00,709.73 510.60,709.83 C511.21,709.92 517.51,709.54 524.60,708.99 ZM 337.00 341.86 C366.98,311.54 391.50,286.01 391.50,285.13 C391.50,283.99 387.14,281.65 377.00,277.33 C369.02,273.94 360.84,270.43 358.82,269.54 C356.79,268.64 352.29,266.76 348.82,265.36 C345.34,263.95 342.05,262.46 341.50,262.03 C340.95,261.61 338.02,260.35 335.00,259.23 C331.98,258.11 324.33,254.97 318.00,252.24 C311.67,249.51 302.45,245.58 297.50,243.49 C292.55,241.41 285.26,238.20 281.30,236.35 C277.33,234.51 273.86,233.00 273.57,233.00 C273.28,233.00 270.22,231.70 266.76,230.12 C263.30,228.54 258.46,226.55 255.99,225.71 C253.52,224.87 248.12,222.62 244.00,220.72 C237.48,217.71 232.96,215.72 218.50,209.49 C206.78,204.43 204.00,202.95 204.00,201.75 C204.00,201.01 205.27,198.62 206.83,196.45 C211.84,189.45 213.51,183.53 213.43,173.00 C213.38,164.75 213.00,162.74 210.59,157.71 C206.55,149.27 198.40,140.92 190.78,137.40 C185.11,134.78 183.49,134.50 174.00,134.51 C164.16,134.52 163.12,134.71 157.50,137.67 C141.34,146.18 132.81,163.61 136.39,180.80 C138.35,190.18 141.20,195.80 146.77,201.22 C159.00,213.13 175.75,216.29 190.79,209.52 C195.29,207.50 197.40,207.00 198.16,207.76 C198.76,208.36 202.50,216.41 206.49,225.67 C210.48,234.93 218.81,254.20 225.01,268.50 C236.19,294.29 243.19,310.75 256.94,343.50 C260.86,352.85 264.69,361.85 265.45,363.50 C269.76,372.87 272.45,379.27 274.71,385.50 C278.17,395.05 279.79,398.02 281.26,397.45 C281.95,397.19 307.03,372.17 337.00,341.86 ZM 749.70 381.92 C753.11,373.99 756.62,365.84 757.50,363.82 C758.37,361.79 760.24,357.29 761.64,353.82 C763.05,350.34 766.23,342.77 768.71,337.00 C771.20,331.23 773.80,325.15 774.49,323.50 C775.19,321.85 776.94,317.90 778.38,314.72 C779.82,311.55 781.00,308.75 781.00,308.50 C781.00,308.26 782.16,305.46 783.57,302.28 C784.99,299.10 786.75,295.15 787.47,293.50 C788.20,291.85 791.36,284.20 794.49,276.50 C800.36,262.07 801.48,259.38 805.56,250.00 C809.82,240.22 819.63,216.64 821.51,211.65 C822.52,208.99 823.87,206.60 824.51,206.36 C825.16,206.11 829.24,207.10 833.59,208.56 C844.40,212.19 855.40,211.76 865.01,207.34 C877.05,201.80 886.04,189.21 887.59,175.73 C888.31,169.43 885.93,158.26 882.76,153.08 C879.29,147.39 870.96,139.06 867.07,137.38 C865.11,136.53 862.60,135.33 861.50,134.71 C860.40,134.09 855.00,133.41 849.50,133.20 C841.03,132.87 838.67,133.14 834.10,134.95 C822.91,139.38 815.09,147.86 811.01,159.99 C806.99,171.91 808.75,183.97 816.11,194.92 C818.74,198.83 819.58,200.91 818.98,202.04 C818.51,202.92 814.83,204.91 810.81,206.47 C806.79,208.02 796.44,212.38 787.82,216.15 C779.19,219.92 771.90,223.00 771.61,223.00 C771.08,223.00 752.71,230.75 745.42,234.05 C743.18,235.06 739.13,236.77 736.42,237.84 C733.71,238.91 729.03,240.90 726.00,242.27 C722.97,243.63 711.72,248.44 701.00,252.95 C690.28,257.46 680.79,261.53 679.92,261.98 C678.17,262.89 652.41,273.80 639.04,279.28 C634.39,281.19 630.43,283.22 630.24,283.79 C630.04,284.37 649.38,304.39 673.19,328.28 C697.01,352.17 722.10,377.42 728.94,384.38 C735.77,391.35 741.85,396.88 742.44,396.69 C743.02,396.49 746.29,389.85 749.70,381.92 Z" fill="rgb(246,246,246)"/>
</g>
</svg>